<svg width="68" height="68" viewBox="0 0 68 68" fill="none" xmlns="http://www.w3.org/2000/svg">
<path d="M22.6621 40.3784C22.7309 40.3784 22.7997 40.3815 22.8682 40.3882C22.915 40.3927 22.961 40.4012 23.0068 40.4087C23.0286 40.4123 23.0506 40.4142 23.0723 40.4185C23.1189 40.4276 23.1645 40.4395 23.21 40.4517C23.2315 40.4574 23.2531 40.4628 23.2744 40.4692C23.3118 40.4805 23.3483 40.4941 23.3848 40.5073C23.4144 40.518 23.4444 40.5275 23.4736 40.5396C23.5072 40.5535 23.5396 40.5699 23.5723 40.5854C23.6023 40.5997 23.6326 40.6136 23.6621 40.6294C23.684 40.6411 23.7051 40.6541 23.7266 40.6665C23.8238 40.723 23.9187 40.7857 24.0078 40.8589C24.1713 40.9929 24.3142 41.1511 24.4316 41.3276C24.4445 41.347 24.4556 41.3675 24.4678 41.3872C24.492 41.4262 24.5154 41.4657 24.5371 41.5063C24.5472 41.5253 24.556 41.5448 24.5654 41.564C24.5869 41.6074 24.6084 41.6508 24.627 41.6958C24.6357 41.717 24.6424 41.7389 24.6504 41.7603C24.6659 41.8018 24.6814 41.8435 24.6943 41.8862C24.7067 41.9272 24.7167 41.9687 24.7266 42.0103C24.7321 42.0337 24.7393 42.0568 24.7441 42.0806C24.7529 42.1239 24.7576 42.1678 24.7637 42.2114C24.7768 42.307 24.7871 42.4042 24.7871 42.5034V53.8413C24.7871 55.0148 23.8355 55.9661 22.6621 55.9663C21.4885 55.9663 20.5371 55.0149 20.5371 53.8413V47.6323L9.99121 58.1782C9.16135 59.0081 7.81619 59.0081 6.98633 58.1782C6.15662 57.3484 6.15653 56.0032 6.98633 55.1733L17.5313 44.6284H11.3232C10.1499 44.6282 9.19829 43.6768 9.19824 42.5034C9.19824 41.3299 10.1498 40.3786 11.3232 40.3784H22.6621ZM53.8408 9.19873C58.1465 9.19873 61.6346 12.687 61.6348 16.9927V51.0073C61.6346 55.313 58.1465 58.8013 53.8408 58.8013H34C32.8265 58.8013 31.8751 57.8498 31.875 56.6763V13.4487H14.1582C12.1997 13.4487 10.6144 15.0342 10.6143 16.9927V33.9995C10.6143 35.173 9.66272 36.1243 8.48926 36.1245C7.31565 36.1245 6.36426 35.1731 6.36426 33.9995V16.9927C6.36438 12.687 9.85254 9.19873 14.1582 9.19873H53.8408ZM36.125 54.5513H53.8408C55.7993 54.5513 57.3846 52.9657 57.3848 51.0073V16.9927C57.3846 15.0342 55.7993 13.4487 53.8408 13.4487H36.125V54.5513ZM51.0078 43.2134C52.1814 43.2134 53.1328 44.1648 53.1328 45.3384C53.1326 46.5118 52.1813 47.4633 51.0078 47.4634H42.5039C41.3305 47.4632 40.3791 46.5118 40.3789 45.3384C40.3789 44.1649 41.3304 43.2135 42.5039 43.2134H51.0078ZM51.0078 31.8745C52.1812 31.8746 53.1326 32.8261 53.1328 33.9995C53.1328 35.1731 52.1814 36.1244 51.0078 36.1245H42.5039C41.3304 36.1244 40.3789 35.173 40.3789 33.9995C40.3791 32.8262 41.3305 31.8746 42.5039 31.8745H51.0078ZM51.0078 20.5366C52.1813 20.5367 53.1328 21.4881 53.1328 22.6616C53.1328 23.8352 52.1814 24.7866 51.0078 24.7866H42.5039C41.3304 24.7865 40.3789 23.8351 40.3789 22.6616C40.379 21.4881 41.3304 20.5368 42.5039 20.5366H51.0078Z" fill="#3A7326"/>
</svg>
