<svg width="68" height="68" viewBox="0 0 68 68" fill="none" xmlns="http://www.w3.org/2000/svg">
<path fill-rule="evenodd" clip-rule="evenodd" d="M57.8638 33.9857C58.6936 34.8155 58.6936 36.161 57.8638 36.9909L56.0641 38.7905C55.2342 39.6204 53.8887 39.6204 53.0589 38.7905C52.229 37.9607 52.229 36.6152 53.0589 35.7853L54.8586 33.9857C55.6884 33.1558 57.0339 33.1558 57.8638 33.9857Z" fill="#3A7326"/>
<path fill-rule="evenodd" clip-rule="evenodd" d="M38.7907 53.0588C39.6205 53.8886 39.6205 55.2341 38.7907 56.064L36.991 57.8637C36.1611 58.6935 34.8156 58.6935 33.9858 57.8637C33.1559 57.0338 33.1559 55.6883 33.9858 54.8584L35.7855 53.0588C36.6153 52.2289 37.9608 52.2289 38.7907 53.0588Z" fill="#3A7326"/>
<path fill-rule="evenodd" clip-rule="evenodd" d="M45.9248 29.0404C47.0984 29.0404 48.0498 29.9918 48.0498 31.1654V33.7105C48.0498 34.8841 47.0984 35.8355 45.9248 35.8355C44.7512 35.8355 43.7998 34.8841 43.7998 33.7105V31.1654C43.7998 29.9918 44.7512 29.0404 45.9248 29.0404Z" fill="#3A7326"/>
<path fill-rule="evenodd" clip-rule="evenodd" d="M33.9858 33.9857C34.8156 33.1558 36.1611 33.1558 36.991 33.9857L38.7907 35.7853C39.6205 36.6152 39.6205 37.9607 38.7907 38.7905C37.9608 39.6204 36.6153 39.6204 35.7855 38.7905L33.9858 36.9909C33.1559 36.161 33.1559 34.8155 33.9858 33.9857Z" fill="#3A7326"/>
<path fill-rule="evenodd" clip-rule="evenodd" d="M29.0405 45.9247C29.0405 44.751 29.9919 43.7997 31.1655 43.7997H33.7106C34.8842 43.7997 35.8356 44.751 35.8356 45.9247C35.8356 47.0983 34.8842 48.0497 33.7106 48.0497H31.1655C29.9919 48.0497 29.0405 47.0983 29.0405 45.9247Z" fill="#3A7326"/>
<path fill-rule="evenodd" clip-rule="evenodd" d="M42.7228 42.7226C43.7119 41.7335 45.1751 41.3881 46.5021 41.8304L59.1101 46.0331C60.4783 46.4892 61.4559 47.7 61.6133 49.1337C61.7707 50.5673 61.0791 51.9614 59.8424 52.7035L55.5976 55.2504C55.4552 55.3358 55.3361 55.455 55.2507 55.5973L52.7038 59.8421C51.9617 61.0788 50.5676 61.7705 49.1339 61.6131C47.7003 61.4557 46.4894 60.4782 46.0333 59.1099L41.8306 46.502C41.3883 45.1749 41.7336 43.7118 42.7228 42.7226ZM46.2147 46.2145L56.6175 49.6821L53.411 51.6061C52.6705 52.0504 52.0506 52.6702 51.6063 53.4107L49.6823 56.6173L46.2147 46.2145Z" fill="#3A7326"/>
<path fill-rule="evenodd" clip-rule="evenodd" d="M52.3975 52.3974C53.2274 51.5675 54.5728 51.5675 55.4027 52.3974L60.2083 57.203C61.0382 58.0328 61.0382 59.3783 60.2083 60.2082C59.3784 61.038 58.0329 61.038 57.2031 60.2082L52.3975 55.4026C51.5676 54.5727 51.5676 53.2272 52.3975 52.3974Z" fill="#3A7326"/>
<path fill-rule="evenodd" clip-rule="evenodd" d="M6.36438 19.8273C6.36438 18.6537 7.31577 17.7023 8.48938 17.7023H59.5106C60.6842 17.7023 61.6356 18.6537 61.6356 19.8273C61.6356 21.0009 60.6842 21.9523 59.5106 21.9523H8.48938C7.31577 21.9523 6.36438 21.0009 6.36438 19.8273Z" fill="#3A7326"/>
<path fill-rule="evenodd" clip-rule="evenodd" d="M16.9929 10.6143C13.4701 10.6143 10.6144 13.47 10.6144 16.9928V39.6689C10.6144 43.1917 13.4702 46.0475 16.9929 46.0475H19.8274C21.001 46.0475 21.9524 46.9988 21.9524 48.1725C21.9524 49.3461 21.001 50.2975 19.8274 50.2975H16.9929C11.1229 50.2975 6.36438 45.5389 6.36438 39.6689V16.9928C6.36438 11.1228 11.1229 6.36426 16.9929 6.36426H51.0071C56.8771 6.36426 61.6356 11.1228 61.6356 16.9928V25.4963C61.6356 26.6699 60.6842 27.6213 59.5106 27.6213C58.337 27.6213 57.3856 26.6699 57.3856 25.4963V16.9928C57.3856 13.47 54.5299 10.6143 51.0071 10.6143H16.9929Z" fill="#3A7326"/>
</svg>
