<svg width="150" height="36" viewBox="0 0 150 36" fill="none" xmlns="http://www.w3.org/2000/svg">
<g clip-path="url(#clip0_88_799)">
<path d="M45.6098 25.747H56.1042V22.586H49.3398V10.6797H45.6098V25.747Z" fill="#51564E"/>
<path d="M62.3215 23.6399C60.8253 23.6399 60.0456 22.3334 60.0456 20.3735C60.0456 18.4137 60.8253 17.0861 62.3215 17.0861C63.8177 17.0861 64.6185 18.4137 64.6185 20.3735C64.6185 22.3334 63.8177 23.6399 62.3215 23.6399ZM62.3426 26.0844C65.8197 26.0844 68.0956 23.6188 68.0956 20.3735C68.0956 17.1283 65.8197 14.6627 62.3426 14.6627C58.8866 14.6627 56.5685 17.1283 56.5685 20.3735C56.5685 23.6188 58.8866 26.0844 62.3426 26.0844Z" fill="#51564E"/>
<path d="M74.1138 29.4771C75.7154 29.4771 77.1273 29.1189 78.0756 28.2759C78.9396 27.4962 79.5085 26.3161 79.5085 24.6935V14.9577H76.2211V16.1167H76.179C75.5468 15.2106 74.5774 14.6416 73.1444 14.6416C70.4682 14.6416 68.6137 16.8754 68.6137 20.0363C68.6137 23.3448 70.8685 25.1571 73.292 25.1571C74.5985 25.1571 75.4203 24.6303 76.0525 23.9138H76.1368V24.9885C76.1368 26.2951 75.5257 27.0537 74.0717 27.0537C72.9337 27.0537 72.3647 26.569 72.1751 26H68.8455C69.1827 28.2549 71.1425 29.4771 74.1138 29.4771ZM74.0927 22.6073C72.8073 22.6073 71.9643 21.5536 71.9643 19.931C71.9643 18.2873 72.8073 17.2336 74.0927 17.2336C75.5257 17.2336 76.2843 18.4558 76.2843 19.9099C76.2843 21.4272 75.5889 22.6073 74.0927 22.6073Z" fill="#51564E"/>
<path d="M86.268 23.6399C84.7719 23.6399 83.9921 22.3334 83.9921 20.3735C83.9921 18.4137 84.7719 17.0861 86.268 17.0861C87.7642 17.0861 88.5647 18.4137 88.5647 20.3735C88.5647 22.3334 87.7642 23.6399 86.268 23.6399ZM86.2891 26.0844C89.7658 26.0844 92.0417 23.6188 92.0417 20.3735C92.0417 17.1283 89.7658 14.6627 86.2891 14.6627C82.8331 14.6627 80.5151 17.1283 80.5151 20.3735C80.5151 23.6188 82.8331 26.0844 86.2891 26.0844Z" fill="#51564E"/>
<path d="M93.0453 25.747H96.4803V14.9575H93.0453V25.747ZM93.0453 13.4613H96.4803V10.6797H93.0453V13.4613Z" fill="#51564E"/>
<path d="M97.9711 29.3085H101.406V24.6303H101.448C102.123 25.5364 103.113 26.0843 104.504 26.0843C107.328 26.0843 109.203 23.8506 109.203 20.3524C109.203 17.1072 107.454 14.6416 104.588 14.6416C103.113 14.6416 102.059 15.2949 101.322 16.2642H101.259V14.9577H97.9711V29.3085ZM103.619 23.4291C102.144 23.4291 101.301 22.2279 101.301 20.4789C101.301 18.7298 102.059 17.4022 103.556 17.4022C105.031 17.4022 105.726 18.6244 105.726 20.4789C105.726 22.3122 104.925 23.4291 103.619 23.4291Z" fill="#51564E"/>
<path d="M114.795 26.0843C117.618 26.0843 119.705 24.8621 119.705 22.5019C119.705 19.7413 117.471 19.2566 115.574 18.9405C114.204 18.6877 112.982 18.5823 112.982 17.8237C112.982 17.1493 113.636 16.8332 114.478 16.8332C115.427 16.8332 116.08 17.1282 116.206 18.0976H119.367C119.199 15.9692 117.555 14.6416 114.499 14.6416C111.95 14.6416 109.842 15.8217 109.842 18.0976C109.842 20.6264 111.844 21.1321 113.72 21.4482C115.153 21.7011 116.459 21.8065 116.459 22.7758C116.459 23.4713 115.806 23.8506 114.773 23.8506C113.636 23.8506 112.919 23.3237 112.793 22.249H109.547C109.653 24.6303 111.634 26.0843 114.795 26.0843Z" fill="#51564E"/>
<path d="M124.371 26.0633C125.867 26.0633 126.815 25.4733 127.595 24.4196H127.658V25.7472H130.946V14.9578H127.511V20.9847C127.511 22.2702 126.794 23.1552 125.614 23.1552C124.518 23.1552 123.992 22.502 123.992 21.3219V14.9578H120.578V22.0383C120.578 24.4407 121.884 26.0633 124.371 26.0633Z" fill="#51564E"/>
<path d="M132.44 25.7472H135.875V19.6992C135.875 18.4137 136.507 17.5076 137.582 17.5076C138.614 17.5076 139.099 18.1819 139.099 19.3409V25.7472H142.534V19.6992C142.534 18.4137 143.145 17.5076 144.241 17.5076C145.273 17.5076 145.758 18.1819 145.758 19.3409V25.7472H149.193V18.7298C149.193 16.3064 147.971 14.6416 145.526 14.6416C144.135 14.6416 142.976 15.2317 142.134 16.5382H142.091C141.543 15.3792 140.469 14.6416 139.057 14.6416C137.497 14.6416 136.465 15.3792 135.791 16.496H135.727V14.9577H132.44V25.7472Z" fill="#51564E"/>
<path fill-rule="evenodd" clip-rule="evenodd" d="M18.2354 35.4057C27.9341 35.4057 35.7964 27.5434 35.7964 17.8448C35.7964 8.14612 27.9341 0.283813 18.2354 0.283813C8.53674 0.283813 0.674438 8.14612 0.674438 17.8448C0.674438 27.5434 8.53674 35.4057 18.2354 35.4057ZM20.9459 13.8519C22.4428 12.3549 22.4428 9.92791 20.9459 8.43093C19.4489 6.93396 17.0219 6.93396 15.5249 8.43093C14.028 9.92791 14.028 12.3549 15.5249 13.8519L18.2354 16.5624L20.9459 13.8519ZM22.2283 20.5553C23.7253 22.0523 26.1523 22.0523 27.6493 20.5553C29.1462 19.0583 29.1462 16.6313 27.6493 15.1343C26.1523 13.6374 23.7253 13.6374 22.2283 15.1343L19.5179 17.8448L22.2283 20.5553ZM20.9459 27.2587C22.4428 25.7617 22.4428 23.3347 20.9459 21.8377L18.2354 19.1272L15.5249 21.8377C14.028 23.3347 14.028 25.7617 15.5249 27.2587C17.0219 28.7556 19.4489 28.7556 20.9459 27.2587ZM8.82153 20.5553C7.32459 19.0583 7.32459 16.6313 8.82153 15.1343C10.3185 13.6374 12.7456 13.6374 14.2425 15.1343L16.953 17.8448L14.2425 20.5553C12.7456 22.0523 10.3185 22.0523 8.82153 20.5553Z" fill="#51564E"/>
</g>
<defs>
<clipPath id="clip0_88_799">
<rect width="149.268" height="36" fill="white" transform="translate(0.585388)"/>
</clipPath>
</defs>
</svg>
