<svg width="106" height="40" viewBox="0 0 106 40" fill="none" xmlns="http://www.w3.org/2000/svg">
<g clip-path="url(#clip0_88_810)">
<path d="M48.9894 35.2381H51.7238V24.9238H48.9894V35.2381ZM48.9894 23.3153H51.7238V20.8624H48.9894V23.3153Z" fill="#51564E"/>
<path d="M53.4855 38.6162H56.2199V34.0723H56.2602C56.8432 34.9569 57.7882 35.54 59.2358 35.54C61.8898 35.54 63.6993 33.4289 63.6993 30.0913C63.6993 26.8743 61.9501 24.6426 59.2157 24.6426C57.8083 24.6426 56.8432 25.3061 56.1797 26.2108H56.1194V24.9241H53.4855V38.6162ZM58.6528 33.268C57.0242 33.268 56.1596 32.0416 56.1596 30.1717C56.1596 28.322 56.8432 26.8542 58.5522 26.8542C60.2411 26.8542 60.9247 28.2214 60.9247 30.1717C60.9247 32.122 60.0401 33.268 58.6528 33.268Z" fill="#51564E"/>
<path d="M69.1548 35.54C71.7283 35.54 73.4976 34.2934 73.4976 32.2225C73.4976 29.8098 71.5876 29.3273 69.8585 28.9654C68.3907 28.6638 67.0235 28.5833 67.0235 27.6987C67.0235 26.9548 67.7272 26.5526 68.7929 26.5526C69.959 26.5526 70.6627 26.9548 70.7833 28.0606H73.2564C73.0553 25.9897 71.5474 24.6426 68.8331 24.6426C66.4807 24.6426 64.6309 25.7082 64.6309 27.9399C64.6309 30.1918 66.4405 30.6945 68.2902 31.0564C69.6976 31.3378 71.0045 31.4384 71.0045 32.4236C71.0045 33.1474 70.3209 33.6098 69.1145 33.6098C67.8881 33.6098 67.0436 33.0871 66.8627 31.9008H64.3293C64.4902 34.0924 66.159 35.54 69.1548 35.54Z" fill="#51564E"/>
<path d="M83.8792 35.2381V24.9238H81.1448V30.8751C81.1448 32.2423 80.3607 33.2074 79.0739 33.2074C77.9078 33.2074 77.3649 32.5439 77.3649 31.3375V24.9238H74.6506V31.8C74.6506 34.0518 75.9374 35.5196 78.2295 35.5196C79.6771 35.5196 80.4813 34.9767 81.1851 34.0317H81.2454V35.2381H83.8792Z" fill="#51564E"/>
<path d="M85.6476 35.2381H88.3821V29.2465C88.3821 27.8793 89.126 26.9947 90.2318 26.9947C91.2371 26.9947 91.8202 27.5978 91.8202 28.764V35.2381H94.5546V29.2465C94.5546 27.8793 95.2583 26.9947 96.4043 26.9947C97.4096 26.9947 97.9927 27.5978 97.9927 28.764V35.2381H100.727V28.3016C100.727 26.0497 99.5006 24.6423 97.3292 24.6423C96.0223 24.6423 94.9366 25.3259 94.2329 26.4518H94.1927C93.69 25.3661 92.6445 24.6423 91.3376 24.6423C89.9101 24.6423 88.9048 25.3661 88.3418 26.3111H88.2815V24.9238H85.6476V35.2381Z" fill="#51564E"/>
<path d="M49.0295 17.572H51.7639V3.19629H49.0295V17.572Z" fill="#51564E"/>
<path d="M58.4503 17.8736C61.6472 17.8736 63.8387 15.5011 63.8387 12.4249C63.8387 9.34869 61.6472 6.9762 58.4503 6.9762C55.2535 6.9762 53.0619 9.34869 53.0619 12.4249C53.0619 15.5011 55.2535 17.8736 58.4503 17.8736ZM58.4503 15.7826C56.7614 15.7826 55.8366 14.4355 55.8366 12.4249C55.8366 10.4143 56.7614 9.04711 58.4503 9.04711C60.1191 9.04711 61.0641 10.4143 61.0641 12.4249C61.0641 14.4355 60.1191 15.7826 58.4503 15.7826Z" fill="#51564E"/>
<path d="M69.6532 21.0906C71.1813 21.0906 72.5083 20.7287 73.3728 19.9244C74.1368 19.2207 74.5993 18.2355 74.5993 16.7879V7.25768H71.9654V8.3434H71.9252C71.3019 7.47884 70.3569 6.9762 69.0701 6.9762C66.4564 6.9762 64.6066 8.94658 64.6066 12.0228C64.6066 15.1392 66.8585 16.9487 69.1506 16.9487C70.4575 16.9487 71.2416 16.426 71.8448 15.7424H71.9051V16.8683C71.9051 18.2757 71.1612 19.0196 69.613 19.0196C68.3463 19.0196 67.7633 18.517 67.5421 17.8736H64.8278C65.1093 19.8842 66.8384 21.0906 69.6532 21.0906ZM69.613 14.7572C68.2056 14.7572 67.2807 13.7318 67.2807 11.9826C67.2807 10.2535 68.2056 9.16774 69.5929 9.16774C71.2416 9.16774 72.0458 10.4545 72.0458 11.9625C72.0458 13.4905 71.3421 14.7572 69.613 14.7572Z" fill="#51564E"/>
<path d="M81.2462 17.8736C84.443 17.8736 86.6346 15.5011 86.6346 12.4249C86.6346 9.34869 84.443 6.9762 81.2462 6.9762C78.0494 6.9762 75.8578 9.34869 75.8578 12.4249C75.8578 15.5011 78.0494 17.8736 81.2462 17.8736ZM81.2462 15.7826C79.5573 15.7826 78.6324 14.4355 78.6324 12.4249C78.6324 10.4143 79.5573 9.04711 81.2462 9.04711C82.915 9.04711 83.86 10.4143 83.86 12.4249C83.86 14.4355 82.915 15.7826 81.2462 15.7826Z" fill="#51564E"/>
<path d="M89.0316 13.6313H100.854V11.2789H89.0316V13.6313Z" fill="#51564E"/>
<path d="M101.721 23.1717C101.721 22.709 102.096 22.3339 102.559 22.3339H104.234C104.697 22.3339 105.072 22.709 105.072 23.1717C105.072 23.6343 104.697 24.0094 104.234 24.0094H102.559C102.096 24.0094 101.721 23.6343 101.721 23.1717Z" fill="#51564E"/>
<path fill-rule="evenodd" clip-rule="evenodd" d="M21.3753 0C32.421 0 41.3753 8.9543 41.3753 20C41.3753 31.0457 32.421 40 21.3753 40C10.3296 40 1.37531 31.0457 1.37531 20C1.37531 8.9543 10.3296 0 21.3753 0ZM20.6524 1.49659C18.3708 1.81769 16.1982 3.65108 14.5117 6.7174C14.0225 7.60683 13.5811 8.58946 13.1964 9.65044C15.4896 9.07417 18.0087 8.73442 20.6524 8.68187V1.49659ZM11.5061 10.1308C11.9844 8.62958 12.5696 7.2484 13.2449 6.02065C14.0809 4.50059 15.0731 3.18795 16.191 2.17977C10.1121 3.94523 5.32053 8.73679 3.55508 14.8157C4.56325 13.6978 5.8759 12.7056 7.39596 11.8696C8.62371 11.1943 10.0049 10.6091 11.5061 10.1308ZM11.0257 11.8211C10.4495 14.1143 10.1097 16.6334 10.0572 19.2771H2.87189C3.193 16.9954 5.02639 14.8228 8.09271 13.1364C8.98214 12.6472 9.96477 12.2058 11.0257 11.8211ZM11.5033 19.2771C11.563 16.392 11.9783 13.6834 12.6655 11.2902C15.0587 10.603 17.7674 10.1876 20.6524 10.1279V13.2508C19.5761 16.0062 17.3809 18.2012 14.6254 19.2771H11.5033ZM10.0572 20.7229H2.87189C3.193 23.0046 5.02639 25.1771 8.09271 26.8636C8.98214 27.3528 9.96477 27.7942 11.0257 28.1789C10.4495 25.8857 10.1097 23.3666 10.0572 20.7229ZM12.6655 28.7098C11.9783 26.3166 11.563 23.608 11.5033 20.7229H14.6254C17.3809 21.7988 19.5762 23.9938 20.6524 26.7492V29.8721C17.7674 29.8124 15.0587 29.397 12.6655 28.7098ZM11.5061 29.8692C10.0049 29.3909 8.62371 28.8057 7.39596 28.1304C5.8759 27.2944 4.56325 26.3022 3.55508 25.1843C5.32053 31.2632 10.1121 36.0548 16.191 37.8202C15.0731 36.812 14.0809 35.4994 13.2449 33.9793C12.5696 32.7516 11.9844 31.3704 11.5061 29.8692ZM20.6524 38.5034C18.3708 38.1823 16.1982 36.3489 14.5117 33.2826C14.0225 32.3932 13.5811 31.4105 13.1964 30.3496C15.4896 30.9258 18.0087 31.2656 20.6524 31.3181V38.5034ZM26.5596 37.8202C27.6775 36.812 28.6697 35.4994 29.5058 33.9793C30.181 32.7516 30.7662 31.3704 31.2445 29.8692C32.7457 29.3909 34.1269 28.8057 35.3547 28.1304C36.8747 27.2944 38.1874 26.3022 39.1955 25.1843C37.4301 31.2632 32.6385 36.0548 26.5596 37.8202ZM29.5542 30.3496C29.1695 31.4105 28.7281 32.3932 28.2389 33.2826C26.5525 36.3489 24.3799 38.1823 22.0982 38.5034V31.3181C24.7419 31.2656 27.261 30.9258 29.5542 30.3496ZM31.7249 28.1789C32.7858 27.7942 33.7685 27.3528 34.6579 26.8636C37.7242 25.1771 39.5576 23.0046 39.8787 20.7229H32.6934C32.6409 23.3666 32.3011 25.8857 31.7249 28.1789ZM31.2474 20.7229C31.1877 23.608 30.7723 26.3166 30.0851 28.7098C27.6919 29.397 24.9833 29.8124 22.0982 29.8721V26.7515C23.1741 23.9951 25.3698 21.7991 28.1261 20.7229H31.2474ZM32.6934 19.2771H39.8787C39.5576 16.9954 37.7242 14.8228 34.6579 13.1364C33.7685 12.6472 32.7858 12.2058 31.7249 11.8211C32.3011 14.1143 32.6409 16.6334 32.6934 19.2771ZM30.0851 11.2902C30.7723 13.6834 31.1877 16.392 31.2474 19.2771H28.1261C25.3698 18.2009 23.1741 16.0049 22.0982 13.2485V10.1279C24.9833 10.1876 27.6919 10.603 30.0851 11.2902ZM31.2445 10.1308C32.7457 10.6091 34.1269 11.1943 35.3547 11.8696C36.8747 12.7056 38.1874 13.6978 39.1955 14.8157C37.4301 8.73679 32.6385 3.94523 26.5596 2.17977C27.6775 3.18795 28.6697 4.50059 29.5058 6.02065C30.181 7.2484 30.7662 8.62958 31.2445 10.1308ZM22.0982 1.49659C24.3799 1.81769 26.5525 3.65108 28.2389 6.7174C28.7281 7.60684 29.1695 8.58946 29.5542 9.65044C27.261 9.07417 24.7419 8.73442 22.0982 8.68187V1.49659Z" fill="#51564E"/>
</g>
<defs>
<clipPath id="clip0_88_810">
<rect width="105" height="40" fill="white" transform="translate(0.853699)"/>
</clipPath>
</defs>
</svg>
