<svg width="151" height="28" viewBox="0 0 151 28" fill="none" xmlns="http://www.w3.org/2000/svg">
<g clip-path="url(#clip0_88_823)">
<path d="M36.8478 1.18945H40.5762V21.5259H46.711V24.9154H36.8478V1.18945Z" fill="#51564E"/>
<path d="M53.7561 25.2545C51.9258 25.2545 50.5249 24.7348 49.5532 23.6953C48.5816 22.6559 48.0958 21.1872 48.0958 19.2891V6.81608C48.0958 4.91801 48.5816 3.44926 49.5532 2.40984C50.5249 1.37042 51.9258 0.850708 53.7561 0.850708C55.5864 0.850708 56.9873 1.37042 57.959 2.40984C58.9306 3.44926 59.4164 4.91801 59.4164 6.81608V19.2891C59.4164 21.1872 58.9306 22.6559 57.959 23.6953C56.9873 24.7348 55.5864 25.2545 53.7561 25.2545ZM53.7561 21.8651C55.0441 21.8651 55.6881 21.0855 55.6881 19.5263V6.57882C55.6881 5.01968 55.0441 4.24012 53.7561 4.24012C52.4681 4.24012 51.8241 5.01968 51.8241 6.57882V19.5263C51.8241 21.0855 52.4681 21.8651 53.7561 21.8651Z" fill="#51564E"/>
<path d="M67.2258 25.2545C65.4182 25.2545 64.0398 24.7461 63.0907 23.7292C62.1417 22.6899 61.6672 21.2098 61.6672 19.2891V6.81608C61.6672 4.89541 62.1417 3.42666 63.0907 2.40984C64.0398 1.37042 65.4182 0.850708 67.2258 0.850708C69.0335 0.850708 70.4119 1.37042 71.3609 2.40984C72.31 3.42666 72.7845 4.89541 72.7845 6.81608V8.84972H69.2595V6.57882C69.2595 5.01968 68.6155 4.24012 67.3275 4.24012C66.0396 4.24012 65.3956 5.01968 65.3956 6.57882V19.5603C65.3956 21.0969 66.0396 21.8651 67.3275 21.8651C68.6155 21.8651 69.2595 21.0969 69.2595 19.5603V14.9168H67.3953V11.5274H72.7845V19.2891C72.7845 21.2098 72.31 22.6899 71.3609 23.7292C70.4119 24.7461 69.0335 25.2545 67.2258 25.2545Z" fill="#51564E"/>
<path d="M80.5669 25.2545C78.7366 25.2545 77.3357 24.7348 76.3641 23.6953C75.3924 22.6559 74.9066 21.1872 74.9066 19.2891V6.81608C74.9066 4.91801 75.3924 3.44926 76.3641 2.40984C77.3357 1.37042 78.7366 0.850708 80.5669 0.850708C82.3973 0.850708 83.7982 1.37042 84.7698 2.40984C85.7415 3.44926 86.2273 4.91801 86.2273 6.81608V19.2891C86.2273 21.1872 85.7415 22.6559 84.7698 23.6953C83.7982 24.7348 82.3973 25.2545 80.5669 25.2545ZM80.5669 21.8651C81.8549 21.8651 82.4989 21.0855 82.4989 19.5263V6.57882C82.4989 5.01968 81.8549 4.24012 80.5669 4.24012C79.279 4.24012 78.635 5.01968 78.635 6.57882V19.5263C78.635 21.0855 79.279 21.8651 80.5669 21.8651Z" fill="#51564E"/>
<path d="M88.756 1.18945H92.4844V24.9154H88.756V1.18945Z" fill="#51564E"/>
<path d="M95.2766 1.18945H100.767C102.62 1.18945 104.01 1.68657 104.937 2.6808C105.863 3.67502 106.326 5.13247 106.326 7.05314V9.39182C106.326 11.3125 105.863 12.7699 104.937 13.7642C104.01 14.7584 102.62 15.2555 100.767 15.2555H99.0052V24.9154H95.2766V1.18945ZM100.767 11.8661C101.378 11.8661 101.829 11.6966 102.123 11.3577C102.44 11.0187 102.598 10.4426 102.598 9.62907V6.81589C102.598 6.00242 102.44 5.42622 102.123 5.08728C101.829 4.74834 101.378 4.57887 100.767 4.57887H99.0052V11.8661H100.767Z" fill="#51564E"/>
<path d="M113.33 25.2545C111.523 25.2545 110.155 24.7461 109.229 23.7292C108.303 22.6899 107.839 21.2098 107.839 19.2891V17.9333H111.364V19.5603C111.364 21.0969 112.008 21.8651 113.296 21.8651C113.929 21.8651 114.403 21.6843 114.719 21.3228C115.058 20.9387 115.228 20.3285 115.228 19.4925C115.228 18.4983 115.002 17.6283 114.55 16.8827C114.099 16.1143 113.262 15.1992 112.042 14.1372C110.505 12.7814 109.432 11.5613 108.822 10.4766C108.212 9.36943 107.907 8.12665 107.907 6.74829C107.907 4.87282 108.381 3.42666 109.33 2.40984C110.28 1.37042 111.658 0.850708 113.466 0.850708C115.25 0.850708 116.595 1.37042 117.499 2.40984C118.426 3.42666 118.889 4.89541 118.889 6.81608V7.79901H115.363V6.57882C115.363 5.76536 115.206 5.17786 114.889 4.81632C114.573 4.43219 114.11 4.24012 113.5 4.24012C112.256 4.24012 111.636 4.99709 111.636 6.51103C111.636 7.36968 111.862 8.17184 112.313 8.91751C112.787 9.66315 113.635 10.567 114.856 11.629C116.414 12.9848 117.488 14.2163 118.076 15.3235C118.663 16.4307 118.957 17.7299 118.957 19.2213C118.957 21.1646 118.47 22.6559 117.499 23.6953C116.55 24.7348 115.16 25.2545 113.33 25.2545Z" fill="#51564E"/>
<path d="M126.518 25.2543C124.71 25.2543 123.332 24.7459 122.382 23.729C121.433 22.6897 120.959 21.2096 120.959 19.2889V1.18945H124.688V19.5601C124.688 20.3735 124.846 20.961 125.162 21.3226C125.501 21.6841 125.976 21.8649 126.585 21.8649C127.196 21.8649 127.659 21.6841 127.975 21.3226C128.314 20.961 128.484 20.3735 128.484 19.5601V1.18945H132.076V19.2889C132.076 21.2096 131.602 22.6897 130.653 23.729C129.704 24.7459 128.325 25.2543 126.518 25.2543Z" fill="#51564E"/>
<path d="M134.731 1.18945H140.053L142.425 18.1704H142.492L144.866 1.18945H150.187V24.9154H146.661V6.95146H146.594L143.882 24.9154H140.764L138.052 6.95146H137.985V24.9154H134.731V1.18945Z" fill="#51564E"/>
<path d="M0.853699 24.9156C5.44055 24.9156 9.15888 21.1972 9.15888 16.6105C9.15888 12.0236 5.44055 8.30524 0.853699 8.30524V14.1188C2.22974 14.1188 3.34524 15.2344 3.34524 16.6105C3.34524 17.9865 2.22974 19.102 0.853699 19.102V24.9156Z" fill="#51564E"/>
<path d="M28.5381 11.0736C27.1189 10.624 25.6076 10.3815 24.0395 10.3815C15.8214 10.3815 9.15936 17.0436 9.15936 25.2616C9.15936 26.0865 9.22649 26.8957 9.35553 27.684H18.601C18.271 26.944 18.0875 26.1243 18.0875 25.2616C18.0875 21.9744 20.7523 19.3096 24.0395 19.3096C25.8361 19.3096 27.4468 20.1056 28.5381 21.3642V11.0736Z" fill="#51564E"/>
<path d="M2.31366 0C3.00222 6.22882 8.28306 11.0736 14.6954 11.0736C21.1077 11.0736 26.3886 6.22882 27.0771 0H18.168C17.618 1.37881 16.2704 2.35313 14.6954 2.35313C13.1203 2.35313 11.7729 1.37881 11.2228 0H2.31366Z" fill="#51564E"/>
</g>
<defs>
<clipPath id="clip0_88_823">
<rect width="149.333" height="28" fill="white" transform="translate(0.853699)"/>
</clipPath>
</defs>
</svg>
