<svg width="164" height="36" viewBox="0 0 164 36" fill="none" xmlns="http://www.w3.org/2000/svg">
<g clip-path="url(#clip0_88_787)">
<path fill-rule="evenodd" clip-rule="evenodd" d="M52.1062 2.39594C52.1062 1.17599 53.1059 0.187012 54.3393 0.187012H58.2296C59.1074 0.187012 59.9582 0.487918 60.6369 1.03851L61.8203 1.99846L61.8499 2.02516C61.8772 2.01605 61.9045 2.00715 61.9319 1.99846C64.067 1.32202 66.6574 1.19338 69.3013 1.19338C71.9452 1.19338 74.5356 1.32202 76.6707 1.99846C76.6981 2.00715 76.7254 2.01605 76.7527 2.02516L76.7823 1.99846L77.9657 1.03851C78.6444 0.487918 79.4952 0.187012 80.373 0.187012H84.2632C85.4966 0.187012 86.4964 1.17599 86.4964 2.39594V3.76146C86.4964 4.81797 86.0465 5.82561 85.2569 6.53718L84.3022 7.39766C83.8362 7.81774 83.2768 8.12346 82.6691 8.29013L82.4433 8.35208C83.3279 10.44 83.8167 12.6718 83.8167 14.4773C83.8167 21.74 79.2737 24.8766 75.2709 27.6404C72.1186 29.8169 69.3013 31.762 69.3013 35.309C69.3013 31.762 66.484 29.8169 63.3317 27.6404C59.3289 24.8766 54.7859 21.74 54.7859 14.4773C54.7859 12.6718 55.2746 10.44 56.1593 8.35208L55.9334 8.29013C55.3258 8.12346 54.7664 7.81774 54.3004 7.39766L53.3457 6.53718C52.5561 5.82561 52.1062 4.81797 52.1062 3.76146V2.39594ZM72.2044 20.4148C72.2044 20.7618 72.0514 21.0945 71.7792 21.3399C71.507 21.5853 71.1378 21.7231 70.7528 21.7231C70.4205 21.7231 70.0998 21.6203 69.8432 21.4343C70.28 22.5907 71.3976 23.6864 73.0976 21.9244C74.5984 20.2871 73.0309 16.8338 71.5038 14.7846C70.9948 14.1016 70.1591 13.7728 69.3013 13.7728C68.4434 13.7728 67.6078 14.1016 67.0988 14.7846C65.5717 16.8338 64.0042 20.2871 65.505 21.9244C67.205 23.6864 68.3226 22.5907 68.7594 21.4343C68.5028 21.6203 68.1821 21.7231 67.8498 21.7231C67.4648 21.7231 67.0955 21.5853 66.8234 21.3399C66.5512 21.0945 66.3982 20.7618 66.3982 20.4148H72.2044ZM63.7426 10.1925H59.6989L62.8857 12.7166C63.587 13.272 64.6121 13.0945 65.046 12.3424C65.5939 11.3929 64.8662 10.1925 63.7426 10.1925ZM74.86 10.1925H78.9037L75.7168 12.7166C75.0155 13.272 73.9905 13.0945 73.5566 12.3424C73.0087 11.3929 73.7364 10.1925 74.86 10.1925Z" fill="#51564E"/>
<path d="M91.3132 25.0651H94.8956V11.5519H91.3132V25.0651ZM91.3132 9.44456H94.8956V6.2309H91.3132V9.44456Z" fill="#51564E"/>
<path d="M97.204 29.4904H100.786V23.5373H100.839C101.603 24.6963 102.841 25.4602 104.738 25.4602C108.215 25.4602 110.586 22.6943 110.586 18.3216C110.586 14.107 108.294 11.1831 104.711 11.1831C102.867 11.1831 101.603 12.0524 100.734 13.2377H100.655V11.5519H97.204V29.4904ZM103.974 22.4836C101.84 22.4836 100.707 20.8768 100.707 18.427C100.707 16.0036 101.603 14.0807 103.842 14.0807C106.055 14.0807 106.95 15.8719 106.95 18.427C106.95 20.9821 105.791 22.4836 103.974 22.4836Z" fill="#51564E"/>
<path d="M117.732 25.4602C121.104 25.4602 123.422 23.827 123.422 21.1138C123.422 17.9529 120.919 17.3207 118.654 16.8465C116.731 16.4514 114.94 16.346 114.94 15.187C114.94 14.2124 115.862 13.6855 117.258 13.6855C118.786 13.6855 119.708 14.2124 119.866 15.6612H123.106C122.842 12.948 120.867 11.1831 117.31 11.1831C114.229 11.1831 111.805 12.5792 111.805 15.5031C111.805 18.4533 114.176 19.1119 116.599 19.586C118.443 19.9548 120.155 20.0865 120.155 21.3773C120.155 22.3255 119.26 22.9314 117.679 22.9314C116.072 22.9314 114.966 22.2465 114.729 20.6924H111.41C111.621 23.5636 113.807 25.4602 117.732 25.4602Z" fill="#51564E"/>
<path d="M137.023 25.0651V11.5519H133.441V19.349C133.441 21.1402 132.413 22.4046 130.727 22.4046C129.2 22.4046 128.488 21.5353 128.488 19.9548V11.5519H124.932V20.5607C124.932 23.5109 126.618 25.4338 129.621 25.4338C131.518 25.4338 132.571 24.7226 133.493 23.4846H133.572V25.0651H137.023Z" fill="#51564E"/>
<path d="M139.341 25.0651H142.923V17.2153C142.923 15.4241 143.898 14.2651 145.347 14.2651C146.664 14.2651 147.428 15.0553 147.428 16.5831V25.0651H151.01V17.2153C151.01 15.4241 151.932 14.2651 153.433 14.2651C154.75 14.2651 155.514 15.0553 155.514 16.5831V25.0651H159.097V15.9773C159.097 13.027 157.49 11.1831 154.645 11.1831C152.933 11.1831 151.51 12.0787 150.589 13.5538H150.536C149.877 12.1314 148.508 11.1831 146.795 11.1831C144.925 11.1831 143.608 12.1314 142.87 13.3694H142.791V11.5519H139.341V25.0651Z" fill="#51564E"/>
<path d="M0.868958 25.0651H4.45139V6.2309H0.868958V25.0651Z" fill="#51564E"/>
<path d="M13.2107 25.4602C17.399 25.4602 20.2702 22.3519 20.2702 18.3216C20.2702 14.2914 17.399 11.1831 13.2107 11.1831C9.02234 11.1831 6.15112 14.2914 6.15112 18.3216C6.15112 22.3519 9.02234 25.4602 13.2107 25.4602ZM13.2107 22.7207C10.998 22.7207 9.78629 20.9558 9.78629 18.3216C9.78629 15.6875 10.998 13.8963 13.2107 13.8963C15.397 13.8963 16.6351 15.6875 16.6351 18.3216C16.6351 20.9558 15.397 22.7207 13.2107 22.7207Z" fill="#51564E"/>
<path d="M27.8889 29.6748C29.8909 29.6748 31.6294 29.2007 32.7621 28.147C33.7631 27.2251 34.3689 25.9343 34.3689 24.0377V11.5519H30.9182V12.9743H30.8655C30.0489 11.8416 28.8109 11.1831 27.125 11.1831C23.7006 11.1831 21.2772 13.7646 21.2772 17.7948C21.2772 21.8777 24.2275 24.2485 27.2304 24.2485C28.9426 24.2485 29.9699 23.5636 30.7601 22.668H30.8392V24.1431C30.8392 25.987 29.8645 26.9616 27.8362 26.9616C26.1767 26.9616 25.4128 26.3031 25.1231 25.4602H21.567C21.9358 28.0943 24.2011 29.6748 27.8889 29.6748ZM27.8362 21.3773C25.9923 21.3773 24.7806 20.0338 24.7806 17.7421C24.7806 15.4768 25.9923 14.0543 27.8099 14.0543C29.9699 14.0543 31.0236 15.7402 31.0236 17.7158C31.0236 19.7177 30.1016 21.3773 27.8362 21.3773Z" fill="#51564E"/>
<path d="M43.0766 25.4602C47.2649 25.4602 50.1361 22.3519 50.1361 18.3216C50.1361 14.2914 47.2649 11.1831 43.0766 11.1831C38.8883 11.1831 36.0171 14.2914 36.0171 18.3216C36.0171 22.3519 38.8883 25.4602 43.0766 25.4602ZM43.0766 22.7207C40.8639 22.7207 39.6522 20.9558 39.6522 18.3216C39.6522 15.6875 40.8639 13.8963 43.0766 13.8963C45.2629 13.8963 46.501 15.6875 46.501 18.3216C46.501 20.9558 45.2629 22.7207 43.0766 22.7207Z" fill="#51564E"/>
<path d="M158.935 8.60165C158.935 7.99548 159.426 7.50409 160.033 7.50409H162.228C162.834 7.50409 163.325 7.99548 163.325 8.60165C163.325 9.20778 162.834 9.69922 162.228 9.69922H160.033C159.426 9.69922 158.935 9.20778 158.935 8.60165Z" fill="#51564E"/>
</g>
<defs>
<clipPath id="clip0_88_787">
<rect width="163.317" height="36" fill="white" transform="translate(0.268311)"/>
</clipPath>
</defs>
</svg>
