<svg width="140" height="36" viewBox="0 0 140 36" fill="none" xmlns="http://www.w3.org/2000/svg">
<path d="M41.6658 11.3288H45.0408V24.975H41.6658V11.3288ZM46.3795 19.8225C46.3795 16.4475 48.4495 14.4338 51.6445 14.4338C54.8395 14.4338 56.9095 16.4475 56.9095 19.8225C56.9095 23.1975 54.8845 25.2225 51.6445 25.2225C48.4045 25.2225 46.3795 23.2538 46.3795 19.8225ZM53.5233 19.8225C53.5233 17.9663 52.792 16.875 51.6445 16.875C50.497 16.875 49.777 18 49.777 19.8225C49.777 21.645 50.4858 22.7475 51.6445 22.7475C52.8033 22.7475 53.5233 21.7125 53.5233 19.8338V19.8225ZM58.1808 25.6388H61.4208C61.575 25.9813 61.8357 26.2649 62.1641 26.4474C62.4924 26.6298 62.871 26.7013 63.2433 26.6513C64.5258 26.6513 65.2008 25.9538 65.2008 24.9413V23.0513H65.1333C64.8644 23.6305 64.428 24.1159 63.8806 24.4448C63.3332 24.7736 62.6997 24.9309 62.062 24.8963C59.5983 24.8963 57.967 23.0175 57.967 19.7888C57.967 16.56 59.5195 14.5238 62.107 14.5238C62.7647 14.498 63.4145 14.6738 63.9695 15.0277C64.5244 15.3816 64.958 15.8966 65.212 16.5038V14.625H68.587V24.8625C68.587 27.3263 66.4158 28.8563 63.2095 28.8563C60.2283 28.8563 58.372 27.5175 58.1808 25.65V25.6388ZM65.212 19.8113C65.212 18.1688 64.4583 17.1338 63.2658 17.1338C62.0733 17.1338 61.342 18.1575 61.342 19.8113C61.342 21.465 62.062 22.3988 63.2658 22.3988C64.4695 22.3988 65.212 21.4875 65.212 19.8225V19.8113ZM69.8583 19.8113C69.8583 16.4363 71.9283 14.4225 75.1233 14.4225C78.3183 14.4225 80.3995 16.4363 80.3995 19.8113C80.3995 23.1863 78.3745 25.2113 75.1233 25.2113C71.872 25.2113 69.8583 23.2538 69.8583 19.8225V19.8113ZM77.002 19.8113C77.002 17.955 76.2708 16.8638 75.1233 16.8638C73.9758 16.8638 73.312 18 73.312 19.8338C73.312 21.6675 74.0208 22.7588 75.1683 22.7588C76.3158 22.7588 77.002 21.7125 77.002 19.8338V19.8113ZM81.682 12.1725C81.6731 11.8318 81.7657 11.4961 81.9479 11.208C82.1301 10.9198 82.3937 10.6923 82.7053 10.5542C83.0169 10.4161 83.3625 10.3736 83.6984 10.4322C84.0342 10.4908 84.345 10.6477 84.5915 10.8831C84.8381 11.1186 85.0091 11.4219 85.083 11.7547C85.1569 12.0875 85.1304 12.4346 85.0066 12.7523C84.883 13.0699 84.6678 13.3438 84.3883 13.5389C84.109 13.7341 83.7778 13.842 83.437 13.8488C83.2111 13.8643 82.9844 13.8329 82.7713 13.7566C82.558 13.6804 82.3629 13.5609 82.1981 13.4055C82.0332 13.2503 81.9023 13.0625 81.8135 12.8542C81.7247 12.6459 81.6799 12.4215 81.682 12.195V12.1725ZM81.682 14.6475H85.057V24.975H81.682V14.6475ZM97.3083 19.8113C97.3083 23.1863 95.812 25.11 93.247 25.11C92.5893 25.1522 91.9345 24.9914 91.3711 24.6494C90.8077 24.3073 90.363 23.8005 90.097 23.1975H90.0295V28.2825H86.6545V14.625H90.0295V16.47H90.097C90.3506 15.857 90.7869 15.337 91.3465 14.9807C91.906 14.6245 92.5618 14.4492 93.2245 14.4788C95.812 14.5238 97.3533 16.4588 97.3533 19.8338L97.3083 19.8113ZM93.9333 19.8113C93.9333 18.1688 93.1795 17.1225 91.9983 17.1225C90.817 17.1225 90.0633 18.18 90.052 19.8113C90.0408 21.4425 90.817 22.4888 91.9983 22.4888C93.1795 22.4888 93.9333 21.465 93.9333 19.8338V19.8113ZM103.102 14.4113C105.903 14.4113 107.602 15.7388 107.681 17.865H104.61C104.61 17.1338 104.002 16.6725 103.068 16.6725C102.135 16.6725 101.718 17.0325 101.718 17.5613C101.718 18.09 102.09 18.2588 102.843 18.4163L105.003 18.855C107.062 19.2938 107.94 20.1263 107.94 21.69C107.94 23.8275 105.993 25.2 103.125 25.2C100.256 25.2 98.377 23.8275 98.2308 21.7238H101.482C101.583 22.4888 102.191 22.9388 103.181 22.9388C104.171 22.9388 104.621 22.6125 104.621 22.0725C104.621 21.5325 104.306 21.42 103.496 21.2513L101.55 20.835C99.5358 20.4188 98.4783 19.35 98.4783 17.775C98.5008 15.75 100.312 14.4338 103.102 14.4338V14.4113ZM119.201 24.9525H115.95V23.0288H115.882C115.703 23.6746 115.309 24.2399 114.765 24.6309C114.22 25.0217 113.559 25.2146 112.89 25.1775C112.377 25.2067 111.864 25.1254 111.385 24.9392C110.906 24.7531 110.473 24.4664 110.115 24.0984C109.757 23.7305 109.481 23.2899 109.308 22.8065C109.134 22.3231 109.067 21.808 109.11 21.2963V14.625H112.485V20.52C112.485 21.7463 113.115 22.3988 114.161 22.3988C114.406 22.3992 114.649 22.3474 114.873 22.2464C115.096 22.1455 115.296 21.9979 115.458 21.8137C115.619 21.6293 115.74 21.4125 115.811 21.1778C115.882 20.943 115.903 20.6957 115.871 20.4525V14.625H119.246L119.201 24.9525ZM120.832 14.625H124.095V16.6163H124.162C124.341 15.979 124.727 15.4189 125.258 15.0241C125.789 14.6292 126.437 14.4215 127.098 14.4338C127.772 14.3799 128.44 14.5814 128.973 14.9983C129.504 15.4152 129.859 16.0169 129.967 16.6838H130.035C130.238 16.0098 130.661 15.423 131.236 15.0156C131.81 14.6083 132.504 14.4035 133.207 14.4338C133.666 14.4184 134.123 14.4997 134.548 14.6725C134.974 14.8452 135.358 15.1056 135.676 15.4366C135.995 15.7677 136.24 16.162 136.396 16.5939C136.552 17.0258 136.616 17.4858 136.582 17.9438V24.975H133.207V18.8438C133.207 17.7188 132.701 17.2013 131.756 17.2013C131.545 17.1995 131.336 17.2429 131.144 17.3286C130.951 17.4143 130.779 17.5403 130.64 17.6982C130.5 17.856 130.396 18.0419 130.334 18.2434C130.272 18.445 130.255 18.6574 130.282 18.8663V24.975H127.076V18.7988C127.076 17.7638 126.57 17.2013 125.647 17.2013C125.434 17.2014 125.223 17.2466 125.029 17.334C124.835 17.4215 124.66 17.5492 124.52 17.7086C124.378 17.8681 124.272 18.0557 124.208 18.2592C124.145 18.4626 124.125 18.6772 124.151 18.8888V24.975H120.776L120.832 14.625Z" fill="#51564E"/>
<path d="M32.2273 11.9475C31.6548 10.6384 30.8971 9.41842 29.9773 8.325C28.6177 6.66038 26.921 5.30256 24.9988 4.34093C23.0767 3.3793 20.9726 2.83564 18.8252 2.74574C16.6778 2.65584 14.5357 3.02174 12.5398 3.81936C10.544 4.61698 8.73974 5.82823 7.24578 7.3734C5.7518 8.91855 4.60199 10.7626 3.87204 12.7842C3.14208 14.8057 2.84851 16.9589 3.01067 19.1021C3.17284 21.2453 3.78703 23.3298 4.81285 25.2185C5.83867 27.1072 7.25285 28.7573 8.96231 30.06C10.0592 30.9126 11.2712 31.6058 12.5623 32.1188C14.3724 32.8606 16.3098 33.2426 18.2661 33.2438C22.3041 33.2349 26.1739 31.6252 29.0272 28.7677C31.8805 25.9102 33.4844 22.0381 33.4873 18C33.4902 15.9171 33.0613 13.8562 32.2273 11.9475ZM18.2548 5.83874C20.0116 5.83856 21.7471 6.22252 23.3398 6.96374C22.9515 7.13156 22.5431 7.24877 22.1248 7.3125C20.7485 7.51173 19.4735 8.1507 18.4902 9.13407C17.5068 10.1174 16.8678 11.3924 16.6686 12.7688C16.5811 13.5406 16.23 14.2587 15.6746 14.8019C15.1192 15.345 14.3935 15.6798 13.6198 15.75C12.2435 15.9492 10.9685 16.5882 9.98513 17.5716C9.00178 18.555 8.36279 19.8299 8.16356 21.2063C8.09611 21.9402 7.78296 22.6299 7.27481 23.1638C6.39804 21.3112 6.00418 19.2669 6.12987 17.2212C6.25555 15.1755 6.8967 13.1948 7.99365 11.4634C9.0906 9.73214 10.6077 8.30645 12.4038 7.31907C14.1999 6.33169 16.2165 5.81472 18.2661 5.81624L18.2548 5.83874ZM8.95106 25.875C9.08606 25.7513 9.22106 25.6388 9.35606 25.5038C10.3569 24.5334 10.9994 23.2525 11.1786 21.87C11.2512 21.0929 11.5982 20.367 12.1573 19.8225C12.6954 19.2625 13.4196 18.9183 14.1936 18.855C15.5699 18.6558 16.8448 18.0168 17.8282 17.0334C18.8116 16.05 19.4506 14.7751 19.6498 13.3988C19.6985 12.5859 20.0473 11.8202 20.6286 11.25C21.1799 10.7008 21.9109 10.3692 22.6873 10.3162C23.9517 10.1423 25.1309 9.58017 26.0623 8.7075C27.1228 9.58733 28.0213 10.6458 28.7173 11.835C28.6746 11.8927 28.6255 11.9456 28.5711 11.9925C28.0341 12.5575 27.3108 12.9092 26.5348 12.9825C25.157 13.1783 23.8801 13.8161 22.8961 14.8001C21.9122 15.7841 21.2743 17.061 21.0786 18.4388C20.9992 19.2132 20.6547 19.9365 20.1032 20.4859C19.5516 21.0355 18.8271 21.3774 18.0523 21.4538C16.6719 21.6514 15.3922 22.2892 14.4031 23.2721C13.4142 24.2551 12.7685 25.5309 12.5623 26.91C12.5018 27.4598 12.3129 27.9878 12.0111 28.4513C10.8568 27.7659 9.82304 26.8956 8.95106 25.875ZM18.2548 30.2175C17.1133 30.2187 15.9771 30.0597 14.8798 29.745C15.2552 29.0453 15.4992 28.2826 15.5998 27.495C15.6787 26.7222 16.0217 26.0003 16.5709 25.4511C17.1201 24.9019 17.842 24.5589 18.6148 24.48C19.9932 24.283 21.2707 23.645 22.2563 22.6614C23.2418 21.678 23.8825 20.4017 24.0823 19.0238C24.1612 18.251 24.5042 17.5291 25.0534 16.9799C25.6026 16.4306 26.3245 16.0876 27.0973 16.0087C28.1346 15.8739 29.1232 15.4876 29.9773 14.8837C30.4516 16.6814 30.5077 18.5637 30.1416 20.3865C29.7754 22.2092 28.9964 23.9239 27.8647 25.3989C26.7329 26.8738 25.2784 28.07 23.6125 28.8955C21.9467 29.721 20.114 30.1541 18.2548 30.1613V30.2175Z" fill="#51564E"/>
</svg>
